<?xml version="1.0" encoding="utf-8"?>
<!-- Generator: Adobe Illustrator 24.0.2, SVG Export Plug-In . SVG Version: 6.00 Build 0)  -->
<svg version="1.1" id="Layer_1" xmlns="http://www.w3.org/2000/svg" xmlns:xlink="http://www.w3.org/1999/xlink" x="0px" y="0px"
	 viewBox="0 0 595.28 841.89" style="enable-background:new 0 0 595.28 841.89;" xml:space="preserve">
<style type="text/css">
	.st0{fill:#FFFFFF;}
</style>
<g>
	<path class="st0" d="M419.14,229.89h-243c-38.87,0-70.5,31.63-70.5,70.5v187c0,38.87,31.63,70.5,70.5,70.5h106.5v25h-45.5
		c-8.28,0-15,6.72-15,15s6.72,15,15,15h121c8.28,0,15-6.72,15-15s-6.72-15-15-15h-45.5v-25h106.5c38.87,0,70.5-31.63,70.5-70.5v-187
		C489.64,261.52,458.01,229.89,419.14,229.89z M459.64,487.39c0,22.33-18.17,40.5-40.5,40.5h-243c-22.33,0-40.5-18.17-40.5-40.5
		v-187c0-22.33,18.17-40.5,40.5-40.5h243c22.33,0,40.5,18.17,40.5,40.5V487.39z"/>
	<path class="st0" d="M387.48,437.89h-14.34V331.94c0-8.28-6.72-15-15-15s-15,6.72-15,15v105.94h-30v-74c0-8.28-6.72-15-15-15
		s-15,6.72-15,15v74h-31v-44c0-8.28-6.72-15-15-15s-15,6.72-15,15v44H207.8c-8.28,0-15,6.72-15,15s6.72,15,15,15h179.68
		c8.28,0,15-6.72,15-15S395.76,437.89,387.48,437.89z"/>
</g>
</svg>
